<svg width="720" height="900" viewBox="0 0 720 900" fill="none" xmlns="http://www.w3.org/2000/svg">
<rect width="720" height="900" fill="#F3EFFF"/>
<g clip-path="url(#clip0)">
<path d="M582.147 438.088H146.097V644.761H582.147V438.088Z" fill="#E6E6E6"/>
<path d="M569.679 455.811H158.566V628.245H569.679V455.811Z" fill="white"/>
<path d="M500.927 487.906H490.282V498.54H500.927V487.906Z" fill="#E6E6E6"/>
<path d="M216.971 487.906H206.325V498.54H216.971V487.906Z" fill="#5F2EEA"/>
<path d="M241.504 518.364H206.017V553.81H241.504V518.364Z" fill="#E6E6E6"/>
<path d="M581.961 426.147H145.911V444.651H581.961V426.147Z" fill="#5F2EEA"/>
<path d="M159.677 442.933C161.573 442.933 163.11 441.398 163.11 439.504C163.11 437.61 161.573 436.074 159.677 436.074C157.781 436.074 156.243 437.61 156.243 439.504C156.243 441.398 157.781 442.933 159.677 442.933Z" fill="white"/>
<path d="M172.709 442.933C174.606 442.933 176.143 441.398 176.143 439.504C176.143 437.61 174.606 436.074 172.709 436.074C170.813 436.074 169.276 437.61 169.276 439.504C169.276 441.398 170.813 442.933 172.709 442.933Z" fill="white"/>
<path d="M185.742 442.933C187.639 442.933 189.176 441.398 189.176 439.504C189.176 437.61 187.639 436.074 185.742 436.074C183.846 436.074 182.309 437.61 182.309 439.504C182.309 441.398 183.846 442.933 185.742 442.933Z" fill="white"/>
<path d="M648.5 644.762H71.5V646H648.5V644.762Z" fill="#E6E6E6"/>
<path d="M365.249 521.91H278.308V526.895H365.249V521.91Z" fill="#E6E6E6"/>
<path d="M412.564 540.093H278.308V545.079H412.564V540.093Z" fill="#5F2EEA"/>
<path d="M387.723 557.224H278.308V562.209H387.723V557.224Z" fill="#E6E6E6"/>
<path d="M342.183 574.292H278.308V579.277H342.183V574.292Z" fill="#E6E6E6"/>
<path d="M374.712 591.358H278.308V596.343H374.712V591.358Z" fill="#E6E6E6"/>
<path d="M519.263 487.906H508.617V498.54H519.263V487.906Z" fill="#E6E6E6"/>
<path d="M537.597 487.906H526.951V498.54H537.597V487.906Z" fill="#E6E6E6"/>
<path opacity="0.997" d="M515.977 579.276C527.917 579.276 537.596 569.608 537.596 557.682C537.596 545.755 527.917 536.087 515.977 536.087C504.036 536.087 494.357 545.755 494.357 557.682C494.357 569.608 504.036 579.276 515.977 579.276Z" fill="#5F2EEA"/>
<path d="M188.319 312.473C201.761 312.473 212.659 301.588 212.659 288.161C212.659 274.734 201.761 263.85 188.319 263.85C174.876 263.85 163.979 274.734 163.979 288.161C163.979 301.588 174.876 312.473 188.319 312.473Z" fill="#2F2E41"/>
<path d="M127.745 496.175H117.086L112.015 455.117H127.744L127.745 496.175Z" fill="#FEB8B8"/>
<path d="M109.476 493.133H130.029V506.06H96.5347C96.5347 502.631 97.8981 499.344 100.325 496.919C102.752 494.495 106.044 493.133 109.476 493.133Z" fill="#2F2E41"/>
<path d="M111.109 490.234L100.941 487.047L108.411 446.354L123.418 451.059L111.109 490.234Z" fill="#FEB8B8"/>
<path d="M94.5837 481.87L114.195 488.017L110.32 500.35L78.3618 490.333C78.8707 488.713 79.6939 487.21 80.7846 485.908C81.8752 484.606 83.2119 483.531 84.7183 482.746C86.2247 481.96 87.8713 481.478 89.5641 481.328C91.2569 481.178 92.9628 481.362 94.5843 481.87L94.5837 481.87Z" fill="#2F2E41"/>
<path d="M114.577 473.85C114.111 473.85 113.649 473.766 113.213 473.603L105.37 470.666C104.49 470.334 103.759 469.696 103.31 468.87C102.861 468.044 102.724 467.084 102.924 466.165C104.898 457.3 111.625 427.118 115.309 410.929C119.678 391.727 183.412 388.159 186.123 388.017L186.346 388.005L193.515 397C196.106 405.318 195.285 411.805 191.075 416.284C178.789 429.348 142.11 421.241 137.736 420.216L118.241 471.334C117.957 472.075 117.455 472.711 116.801 473.16C116.147 473.61 115.372 473.85 114.579 473.85H114.577Z" fill="#2F2E41"/>
<path d="M125.877 479.929C125.412 479.928 124.95 479.845 124.514 479.681L116.673 476.744C115.793 476.412 115.062 475.774 114.613 474.948C114.164 474.122 114.027 473.162 114.227 472.243C116.201 463.378 122.929 433.196 126.612 417.007C130.981 397.805 194.715 394.237 197.426 394.094L197.649 394.083L204.816 403.081C207.407 411.398 206.586 417.886 202.376 422.364C190.091 435.426 153.41 427.322 149.037 426.295L129.54 477.412C129.256 478.152 128.753 478.789 128.099 479.238C127.445 479.687 126.67 479.928 125.877 479.928L125.877 479.929Z" fill="#2F2E41"/>
<path d="M103.194 354.876C103.481 355.261 103.739 355.668 103.963 356.093L146.837 360.605L153.01 352.152L166.997 359.788L154.875 380.298L102.294 366.907C100.967 368.199 99.2781 369.057 97.4514 369.367C95.6248 369.677 93.747 369.424 92.0678 368.641C90.3887 367.859 88.9877 366.585 88.0512 364.988C87.1148 363.391 86.6873 361.547 86.8255 359.702C86.9637 357.857 87.6611 356.097 88.825 354.657C89.9889 353.217 91.5641 352.165 93.3411 351.641C95.1181 351.117 97.0126 351.146 98.7728 351.724C100.533 352.302 102.075 353.401 103.195 354.876L103.194 354.876Z" fill="#FEB8B8"/>
<path d="M202.826 406.525C202.206 406.523 201.595 406.375 201.044 406.092C192.471 401.737 175.777 394.197 160.297 392.619C159.767 392.567 159.254 392.405 158.79 392.143C158.327 391.882 157.923 391.526 157.606 391.1C157.282 390.668 157.05 390.175 156.926 389.651C156.801 389.126 156.786 388.582 156.881 388.051C158.278 380.328 161.482 360.659 161.069 344.897C160.948 340.05 162.481 335.306 165.417 331.445C168.352 327.584 172.516 324.836 177.222 323.652C180.055 322.905 182.933 322.338 185.837 321.955C189.176 321.532 192.568 321.897 195.741 323.02C198.914 324.142 201.78 325.991 204.109 328.419C206.437 330.846 208.165 333.785 209.152 336.999C210.139 340.213 210.359 343.614 209.794 346.928C207.034 363.264 204.25 386.079 206.669 402.006C206.78 402.72 206.691 403.45 206.412 404.117C206.133 404.783 205.675 405.36 205.088 405.782C204.432 406.262 203.64 406.522 202.826 406.525Z" fill="#CCCCCC"/>
<path d="M161.863 364.976C161.329 364.975 160.8 364.865 160.31 364.652L149.142 359.824C148.19 359.411 147.442 358.638 147.06 357.675C146.678 356.712 146.695 355.637 147.106 354.686L155.739 334.765C156.252 333.558 156.998 332.464 157.934 331.545C158.87 330.626 159.978 329.9 161.196 329.408C162.413 328.917 163.715 328.67 165.028 328.681C166.34 328.692 167.638 328.962 168.847 329.474C170.055 329.986 171.151 330.731 172.071 331.667C172.991 332.602 173.718 333.709 174.21 334.925C174.702 336.14 174.949 337.441 174.938 338.752C174.926 340.063 174.657 341.359 174.144 342.567C174.125 342.61 174.106 342.654 174.087 342.698L165.454 362.619C165.15 363.318 164.648 363.913 164.01 364.332C163.373 364.751 162.627 364.975 161.863 364.976Z" fill="#CCCCCC"/>
<path d="M187.429 315.178C199.221 315.178 208.78 305.63 208.78 293.852C208.78 282.074 199.221 272.526 187.429 272.526C175.637 272.526 166.078 282.074 166.078 293.852C166.078 305.63 175.637 315.178 187.429 315.178Z" fill="#FEB8B8"/>
<path d="M165.694 283.372C175.807 289.539 187.209 293.291 199.011 294.338L195.499 290.135C198.056 291.079 200.746 291.613 203.471 291.716C204.835 291.755 206.189 291.475 207.425 290.897C208.661 290.319 209.744 289.46 210.587 288.389C211.276 287.276 211.685 286.014 211.78 284.71C211.874 283.406 211.652 282.098 211.131 280.898C210.061 278.504 208.395 276.424 206.292 274.854C202.565 271.909 198.166 269.931 193.488 269.096C188.81 268.261 183.997 268.595 179.48 270.068C176.381 270.993 173.605 272.771 171.471 275.199C169.447 277.693 165.55 279.916 166.587 282.955L165.694 283.372Z" fill="#2F2E41"/>
<path d="M189.338 265.407C193.594 261.095 198.744 257.768 204.426 255.659C208.033 254.144 211.989 253.653 215.857 254.242C219.67 255.008 223.276 257.643 224.34 261.38C225.208 264.436 224.311 267.726 222.962 270.604C221.612 273.482 219.809 276.148 218.717 279.132C217.603 282.177 217.268 285.451 217.743 288.658C218.217 291.864 219.486 294.902 221.433 297.495C223.381 300.088 225.947 302.153 228.896 303.505C231.846 304.856 235.087 305.45 238.325 305.233C234.579 305.735 231.126 307.493 227.464 308.429C223.801 309.364 219.479 309.302 216.758 306.681C213.878 303.908 213.821 299.4 213.96 295.408L214.58 277.603C214.685 274.576 214.776 271.453 213.682 268.627C212.589 265.801 209.992 263.328 206.96 263.354C204.662 263.373 202.629 264.764 200.786 266.135C198.943 267.506 196.992 268.969 194.703 269.173C192.415 269.378 189.801 267.688 189.972 265.397" fill="#2F2E41"/>
<path d="M151.533 401.046C150.119 401.045 148.722 400.73 147.444 400.124C146.166 399.518 145.038 398.637 144.142 397.543C143.246 396.45 142.604 395.171 142.262 393.8C141.921 392.429 141.888 390.999 142.166 389.614C142.444 388.228 143.026 386.922 143.87 385.788C144.715 384.654 145.8 383.722 147.049 383.058C148.298 382.393 149.678 382.014 151.091 381.947C152.504 381.88 153.915 382.127 155.221 382.67C155.614 382.836 155.995 383.029 156.361 383.247L195.254 365.808L196.347 355.272L213.112 354.824L213.001 372.364C212.98 374.396 212.305 376.368 211.073 377.986C209.842 379.604 208.122 380.782 206.167 381.346L160.685 394.275C160.598 394.575 160.494 394.87 160.375 395.159C159.646 396.9 158.418 398.387 156.846 399.434C155.274 400.482 153.427 401.042 151.538 401.046L151.533 401.046Z" fill="#FEB8B8"/>
<path d="M211.692 363.418C211.215 363.659 210.694 363.8 210.16 363.832L198.013 364.578C196.978 364.64 195.96 364.29 195.183 363.604C194.406 362.918 193.934 361.952 193.869 360.918L192.536 339.252C192.376 336.61 193.272 334.013 195.028 332.032C196.784 330.05 199.256 328.845 201.901 328.683C204.545 328.52 207.146 329.413 209.132 331.165C211.118 332.917 212.326 335.384 212.492 338.025L213.826 359.692C213.872 360.453 213.695 361.211 213.316 361.873C212.937 362.535 212.373 363.072 211.693 363.418H211.692Z" fill="#CCCCCC"/>
<path d="M187.232 397.159H114.677C114.068 397.159 113.575 397.652 113.575 398.259V402.136C113.575 402.744 114.068 403.237 114.677 403.237H187.232C187.84 403.237 188.334 402.744 188.334 402.136V398.259C188.334 397.652 187.84 397.159 187.232 397.159Z" fill="#3F3D56"/>
<path d="M85.6957 397.593V355.047C85.6975 353.551 86.2934 352.116 87.3526 351.058C88.4119 350 89.848 349.405 91.3461 349.403H168.713C170.211 349.405 171.647 350 172.707 351.058C173.766 352.116 174.362 353.551 174.363 355.047V397.593C174.362 399.09 173.766 400.524 172.707 401.582C171.647 402.64 170.211 403.236 168.713 403.237H91.3461C89.848 403.235 88.4119 402.64 87.3526 401.582C86.2934 400.524 85.6975 399.09 85.6957 397.593Z" fill="#3F3D56"/>
<path d="M130.96 381.532C133.841 381.532 136.176 379.2 136.176 376.322C136.176 373.445 133.841 371.113 130.96 371.113C128.079 371.113 125.744 373.445 125.744 376.322C125.744 379.2 128.079 381.532 130.96 381.532Z" fill="white"/>
</g>
<defs>
<clipPath id="clip0">
<rect width="577" height="392" fill="white" transform="translate(71.5 254)"/>
</clipPath>
</defs>
</svg>