<svg width="236" height="253" viewBox="0 0 236 253" fill="none" xmlns="http://www.w3.org/2000/svg">
<circle cx="169" cy="49" r="8" fill="#7E7AD2"/>
<circle cx="202" cy="75" r="8" fill="#7E7AD2"/>
<circle cx="125" cy="39" r="8" fill="#7E7AD2"/>
<circle cx="88" cy="54" r="8" fill="#7E7AD2"/>
<circle cx="58" cy="83" r="8" fill="#7E7AD2"/>
<circle cx="44" cy="121" r="8" fill="#7E7AD2"/>
<circle cx="53" cy="162" r="8" fill="#7E7AD2"/>
<circle cx="79" cy="196" r="8" fill="#7E7AD2"/>
<circle cx="116" cy="211" r="8" fill="#7E7AD2"/>
<circle cx="158" cy="208" r="8" fill="#7E7AD2"/>
<circle cx="195" cy="189" r="8" fill="#7E7AD2"/>
<circle cx="179.5" cy="20.5" r="10.5" fill="#69E9F5"/>
<circle cx="123.5" cy="10.5" r="10.5" fill="#69E9F5"/>
<circle cx="67.5" cy="27.5" r="10.5" fill="#69E9F5"/>
<circle cx="27.5" cy="66.5" r="10.5" fill="#69E9F5"/>
<circle cx="10.5" cy="120.5" r="10.5" fill="#69E9F5"/>
<circle cx="20.5" cy="175.5" r="10.5" fill="#69E9F5"/>
<circle cx="56.5" cy="220.5" r="10.5" fill="#69E9F5"/>
<circle cx="108.5" cy="242.5" r="10.5" fill="#69E9F5"/>
<circle cx="166.5" cy="239.5" r="10.5" fill="#69E9F5"/>
<circle cx="215.5" cy="210.5" r="10.5" fill="#69E9F5"/>
<circle cx="225.5" cy="55.5" r="10.5" fill="#69E9F5"/>
</svg>
